<svg xmlns="http://www.w3.org/2000/svg" width="460" height="220" viewBox="0 0 460 220" fill="none">
  <rect width="460" height="220" fill="#ffffff" />
  <rect x="1" y="1" width="458" height="218" stroke="#1a1a1a" stroke-width="2" fill="none" />
  <rect x="2" y="2" width="456" height="26" fill="#fafafa" />
  <text x="10" y="16" fill="#1a1a1a" font-family="monospace" font-size="13" font-weight="bold" dominant-baseline="middle">FORKNADO</text>
  <text x="450" y="16" fill="#7f001c" font-family="monospace" font-size="11" font-weight="bold" text-anchor="end" dominant-baseline="middle">LV 24</text>
  <line x1="4" y1="29" x2="456" y2="29" stroke="#1a1a1a" stroke-width="1" />
  <rect x="8" y="34" width="96" height="96" fill="#ffffff" stroke="#1a1a1a" stroke-width="1" />
  <g transform="translate(8, 34)"><rect x="12" y="28" width="4" height="4" fill="#1a1a1a" />
<rect x="16" y="28" width="4" height="4" fill="#1a1a1a" />
<rect x="20" y="28" width="4" height="4" fill="#1a1a1a" />
<rect x="24" y="28" width="4" height="4" fill="#1a1a1a" />
<rect x="28" y="28" width="4" height="4" fill="#1a1a1a" />
<rect x="32" y="28" width="4" height="4" fill="#1a1a1a" />
<rect x="36" y="28" width="4" height="4" fill="#1a1a1a" />
<rect x="40" y="28" width="4" height="4" fill="#1a1a1a" />
<rect x="44" y="28" width="4" height="4" fill="#1a1a1a" />
<rect x="48" y="28" width="4" height="4" fill="#1a1a1a" />
<rect x="52" y="28" width="4" height="4" fill="#1a1a1a" />
<rect x="56" y="28" width="4" height="4" fill="#1a1a1a" />
<rect x="60" y="28" width="4" height="4" fill="#1a1a1a" />
<rect x="64" y="28" width="4" height="4" fill="#1a1a1a" />
<rect x="68" y="28" width="4" height="4" fill="#1a1a1a" />
<rect x="72" y="28" width="4" height="4" fill="#1a1a1a" />
<rect x="76" y="28" width="4" height="4" fill="#1a1a1a" />
<rect x="80" y="28" width="4" height="4" fill="#1a1a1a" />
<rect x="8" y="32" width="4" height="4" fill="#1a1a1a" />
<rect x="12" y="32" width="4" height="4" fill="#dc2626" />
<rect x="16" y="32" width="4" height="4" fill="#fdba74" />
<rect x="20" y="32" width="4" height="4" fill="#fdba74" />
<rect x="24" y="32" width="4" height="4" fill="#dc2626" />
<rect x="28" y="32" width="4" height="4" fill="#dc2626" />
<rect x="32" y="32" width="4" height="4" fill="#fdba74" />
<rect x="36" y="32" width="4" height="4" fill="#fdba74" />
<rect x="40" y="32" width="4" height="4" fill="#dc2626" />
<rect x="44" y="32" width="4" height="4" fill="#dc2626" />
<rect x="48" y="32" width="4" height="4" fill="#dc2626" />
<rect x="52" y="32" width="4" height="4" fill="#dc2626" />
<rect x="56" y="32" width="4" height="4" fill="#fdba74" />
<rect x="60" y="32" width="4" height="4" fill="#fdba74" />
<rect x="64" y="32" width="4" height="4" fill="#dc2626" />
<rect x="68" y="32" width="4" height="4" fill="#dc2626" />
<rect x="72" y="32" width="4" height="4" fill="#fdba74" />
<rect x="76" y="32" width="4" height="4" fill="#fdba74" />
<rect x="80" y="32" width="4" height="4" fill="#dc2626" />
<rect x="84" y="32" width="4" height="4" fill="#1a1a1a" />
<rect x="8" y="36" width="4" height="4" fill="#1a1a1a" />
<rect x="12" y="36" width="4" height="4" fill="#fdba74" />
<rect x="16" y="36" width="4" height="4" fill="#fdba74" />
<rect x="20" y="36" width="4" height="4" fill="#dc2626" />
<rect x="24" y="36" width="4" height="4" fill="#fdba74" />
<rect x="28" y="36" width="4" height="4" fill="#fdba74" />
<rect x="32" y="36" width="4" height="4" fill="#1a1a1a" />
<rect x="36" y="36" width="4" height="4" fill="#1a1a1a" />
<rect x="40" y="36" width="4" height="4" fill="#fdba74" />
<rect x="44" y="36" width="4" height="4" fill="#fdba74" />
<rect x="48" y="36" width="4" height="4" fill="#fdba74" />
<rect x="52" y="36" width="4" height="4" fill="#fdba74" />
<rect x="56" y="36" width="4" height="4" fill="#1a1a1a" />
<rect x="60" y="36" width="4" height="4" fill="#1a1a1a" />
<rect x="64" y="36" width="4" height="4" fill="#fdba74" />
<rect x="68" y="36" width="4" height="4" fill="#fdba74" />
<rect x="72" y="36" width="4" height="4" fill="#dc2626" />
<rect x="76" y="36" width="4" height="4" fill="#fdba74" />
<rect x="80" y="36" width="4" height="4" fill="#fdba74" />
<rect x="84" y="36" width="4" height="4" fill="#1a1a1a" />
<rect x="8" y="40" width="4" height="4" fill="#1a1a1a" />
<rect x="12" y="40" width="4" height="4" fill="#fdba74" />
<rect x="16" y="40" width="4" height="4" fill="#fdba74" />
<rect x="20" y="40" width="4" height="4" fill="#fdba74" />
<rect x="24" y="40" width="4" height="4" fill="#fdba74" />
<rect x="28" y="40" width="4" height="4" fill="#fdba74" />
<rect x="32" y="40" width="4" height="4" fill="#dc2626" />
<rect x="36" y="40" width="4" height="4" fill="#fdba74" />
<rect x="40" y="40" width="4" height="4" fill="#fdba74" />
<rect x="44" y="40" width="4" height="4" fill="#fdba74" />
<rect x="48" y="40" width="4" height="4" fill="#fdba74" />
<rect x="52" y="40" width="4" height="4" fill="#fdba74" />
<rect x="56" y="40" width="4" height="4" fill="#fdba74" />
<rect x="60" y="40" width="4" height="4" fill="#dc2626" />
<rect x="64" y="40" width="4" height="4" fill="#fdba74" />
<rect x="68" y="40" width="4" height="4" fill="#fdba74" />
<rect x="72" y="40" width="4" height="4" fill="#fdba74" />
<rect x="76" y="40" width="4" height="4" fill="#fdba74" />
<rect x="80" y="40" width="4" height="4" fill="#fdba74" />
<rect x="84" y="40" width="4" height="4" fill="#1a1a1a" />
<rect x="8" y="44" width="4" height="4" fill="#1a1a1a" />
<rect x="12" y="44" width="4" height="4" fill="#dc2626" />
<rect x="16" y="44" width="4" height="4" fill="#dc2626" />
<rect x="20" y="44" width="4" height="4" fill="#fdba74" />
<rect x="24" y="44" width="4" height="4" fill="#fdba74" />
<rect x="28" y="44" width="4" height="4" fill="#dc2626" />
<rect x="32" y="44" width="4" height="4" fill="#dc2626" />
<rect x="36" y="44" width="4" height="4" fill="#fdba74" />
<rect x="40" y="44" width="4" height="4" fill="#fdba74" />
<rect x="44" y="44" width="4" height="4" fill="#fdba74" />
<rect x="48" y="44" width="4" height="4" fill="#fdba74" />
<rect x="52" y="44" width="4" height="4" fill="#fdba74" />
<rect x="56" y="44" width="4" height="4" fill="#fdba74" />
<rect x="60" y="44" width="4" height="4" fill="#dc2626" />
<rect x="64" y="44" width="4" height="4" fill="#dc2626" />
<rect x="68" y="44" width="4" height="4" fill="#fdba74" />
<rect x="72" y="44" width="4" height="4" fill="#fdba74" />
<rect x="76" y="44" width="4" height="4" fill="#dc2626" />
<rect x="80" y="44" width="4" height="4" fill="#dc2626" />
<rect x="84" y="44" width="4" height="4" fill="#1a1a1a" />
<rect x="8" y="48" width="4" height="4" fill="#1a1a1a" />
<rect x="12" y="48" width="4" height="4" fill="#fdba74" />
<rect x="16" y="48" width="4" height="4" fill="#fdba74" />
<rect x="20" y="48" width="4" height="4" fill="#fdba74" />
<rect x="24" y="48" width="4" height="4" fill="#fdba74" />
<rect x="28" y="48" width="4" height="4" fill="#dc2626" />
<rect x="32" y="48" width="4" height="4" fill="#fdba74" />
<rect x="36" y="48" width="4" height="4" fill="#1a1a1a" />
<rect x="40" y="48" width="4" height="4" fill="#1a1a1a" />
<rect x="44" y="48" width="4" height="4" fill="#fdba74" />
<rect x="48" y="48" width="4" height="4" fill="#fdba74" />
<rect x="52" y="48" width="4" height="4" fill="#1a1a1a" />
<rect x="56" y="48" width="4" height="4" fill="#1a1a1a" />
<rect x="60" y="48" width="4" height="4" fill="#fdba74" />
<rect x="64" y="48" width="4" height="4" fill="#dc2626" />
<rect x="68" y="48" width="4" height="4" fill="#fdba74" />
<rect x="72" y="48" width="4" height="4" fill="#fdba74" />
<rect x="76" y="48" width="4" height="4" fill="#fdba74" />
<rect x="80" y="48" width="4" height="4" fill="#fdba74" />
<rect x="84" y="48" width="4" height="4" fill="#1a1a1a" />
<rect x="4" y="52" width="4" height="4" fill="#1a1a1a" />
<rect x="8" y="52" width="4" height="4" fill="#fdba74" />
<rect x="12" y="52" width="4" height="4" fill="#fdba74" />
<rect x="16" y="52" width="4" height="4" fill="#fdba74" />
<rect x="20" y="52" width="4" height="4" fill="#dc2626" />
<rect x="24" y="52" width="4" height="4" fill="#fdba74" />
<rect x="28" y="52" width="4" height="4" fill="#fdba74" />
<rect x="32" y="52" width="4" height="4" fill="#fdba74" />
<rect x="36" y="52" width="4" height="4" fill="#1a1a1a" />
<rect x="40" y="52" width="4" height="4" fill="#1a1a1a" />
<rect x="44" y="52" width="4" height="4" fill="#fdba74" />
<rect x="48" y="52" width="4" height="4" fill="#fdba74" />
<rect x="52" y="52" width="4" height="4" fill="#1a1a1a" />
<rect x="56" y="52" width="4" height="4" fill="#1a1a1a" />
<rect x="60" y="52" width="4" height="4" fill="#fdba74" />
<rect x="64" y="52" width="4" height="4" fill="#fdba74" />
<rect x="68" y="52" width="4" height="4" fill="#fdba74" />
<rect x="72" y="52" width="4" height="4" fill="#dc2626" />
<rect x="76" y="52" width="4" height="4" fill="#fdba74" />
<rect x="80" y="52" width="4" height="4" fill="#fdba74" />
<rect x="84" y="52" width="4" height="4" fill="#fdba74" />
<rect x="88" y="52" width="4" height="4" fill="#1a1a1a" />
<rect x="4" y="56" width="4" height="4" fill="#1a1a1a" />
<rect x="8" y="56" width="4" height="4" fill="#fdba74" />
<rect x="12" y="56" width="4" height="4" fill="#fdba74" />
<rect x="16" y="56" width="4" height="4" fill="#dc2626" />
<rect x="20" y="56" width="4" height="4" fill="#fdba74" />
<rect x="24" y="56" width="4" height="4" fill="#fdba74" />
<rect x="28" y="56" width="4" height="4" fill="#fdba74" />
<rect x="32" y="56" width="4" height="4" fill="#dc2626" />
<rect x="36" y="56" width="4" height="4" fill="#fdba74" />
<rect x="40" y="56" width="4" height="4" fill="#fdba74" />
<rect x="44" y="56" width="4" height="4" fill="#fdba74" />
<rect x="48" y="56" width="4" height="4" fill="#fdba74" />
<rect x="52" y="56" width="4" height="4" fill="#fdba74" />
<rect x="56" y="56" width="4" height="4" fill="#fdba74" />
<rect x="60" y="56" width="4" height="4" fill="#dc2626" />
<rect x="64" y="56" width="4" height="4" fill="#fdba74" />
<rect x="68" y="56" width="4" height="4" fill="#fdba74" />
<rect x="72" y="56" width="4" height="4" fill="#fdba74" />
<rect x="76" y="56" width="4" height="4" fill="#dc2626" />
<rect x="80" y="56" width="4" height="4" fill="#fdba74" />
<rect x="84" y="56" width="4" height="4" fill="#fdba74" />
<rect x="88" y="56" width="4" height="4" fill="#1a1a1a" />
<rect x="4" y="60" width="4" height="4" fill="#1a1a1a" />
<rect x="8" y="60" width="4" height="4" fill="#fdba74" />
<rect x="12" y="60" width="4" height="4" fill="#fdba74" />
<rect x="16" y="60" width="4" height="4" fill="#fdba74" />
<rect x="20" y="60" width="4" height="4" fill="#fdba74" />
<rect x="24" y="60" width="4" height="4" fill="#fdba74" />
<rect x="28" y="60" width="4" height="4" fill="#dc2626" />
<rect x="32" y="60" width="4" height="4" fill="#fdba74" />
<rect x="36" y="60" width="4" height="4" fill="#fdba74" />
<rect x="40" y="60" width="4" height="4" fill="#fdba74" />
<rect x="44" y="60" width="4" height="4" fill="#fdba74" />
<rect x="48" y="60" width="4" height="4" fill="#fdba74" />
<rect x="52" y="60" width="4" height="4" fill="#fdba74" />
<rect x="56" y="60" width="4" height="4" fill="#fdba74" />
<rect x="60" y="60" width="4" height="4" fill="#fdba74" />
<rect x="64" y="60" width="4" height="4" fill="#dc2626" />
<rect x="68" y="60" width="4" height="4" fill="#fdba74" />
<rect x="72" y="60" width="4" height="4" fill="#fdba74" />
<rect x="76" y="60" width="4" height="4" fill="#fdba74" />
<rect x="80" y="60" width="4" height="4" fill="#fdba74" />
<rect x="84" y="60" width="4" height="4" fill="#fdba74" />
<rect x="88" y="60" width="4" height="4" fill="#1a1a1a" />
<rect x="4" y="64" width="4" height="4" fill="#1a1a1a" />
<rect x="8" y="64" width="4" height="4" fill="#dc2626" />
<rect x="12" y="64" width="4" height="4" fill="#1a1a1a" />
<rect x="16" y="64" width="4" height="4" fill="#1a1a1a" />
<rect x="20" y="64" width="4" height="4" fill="#1a1a1a" />
<rect x="24" y="64" width="4" height="4" fill="#1a1a1a" />
<rect x="28" y="64" width="4" height="4" fill="#1a1a1a" />
<rect x="32" y="64" width="4" height="4" fill="#1a1a1a" />
<rect x="36" y="64" width="4" height="4" fill="#1a1a1a" />
<rect x="40" y="64" width="4" height="4" fill="#1a1a1a" />
<rect x="44" y="64" width="4" height="4" fill="#1a1a1a" />
<rect x="48" y="64" width="4" height="4" fill="#1a1a1a" />
<rect x="52" y="64" width="4" height="4" fill="#1a1a1a" />
<rect x="56" y="64" width="4" height="4" fill="#1a1a1a" />
<rect x="60" y="64" width="4" height="4" fill="#1a1a1a" />
<rect x="64" y="64" width="4" height="4" fill="#1a1a1a" />
<rect x="68" y="64" width="4" height="4" fill="#1a1a1a" />
<rect x="72" y="64" width="4" height="4" fill="#1a1a1a" />
<rect x="76" y="64" width="4" height="4" fill="#1a1a1a" />
<rect x="80" y="64" width="4" height="4" fill="#1a1a1a" />
<rect x="84" y="64" width="4" height="4" fill="#dc2626" />
<rect x="88" y="64" width="4" height="4" fill="#1a1a1a" />
<rect x="8" y="68" width="4" height="4" fill="#1a1a1a" />
<rect x="20" y="68" width="4" height="4" fill="#1a1a1a" />
<rect x="24" y="68" width="4" height="4" fill="#dc2626" />
<rect x="28" y="68" width="4" height="4" fill="#fdba74" />
<rect x="32" y="68" width="4" height="4" fill="#1a1a1a" />
<rect x="36" y="68" width="4" height="4" fill="#dc2626" />
<rect x="40" y="68" width="4" height="4" fill="#dc2626" />
<rect x="44" y="68" width="4" height="4" fill="#1a1a1a" />
<rect x="48" y="68" width="4" height="4" fill="#1a1a1a" />
<rect x="52" y="68" width="4" height="4" fill="#dc2626" />
<rect x="56" y="68" width="4" height="4" fill="#dc2626" />
<rect x="60" y="68" width="4" height="4" fill="#1a1a1a" />
<rect x="64" y="68" width="4" height="4" fill="#fdba74" />
<rect x="68" y="68" width="4" height="4" fill="#dc2626" />
<rect x="72" y="68" width="4" height="4" fill="#1a1a1a" />
<rect x="84" y="68" width="4" height="4" fill="#1a1a1a" />
<rect x="16" y="72" width="4" height="4" fill="#1a1a1a" />
<rect x="20" y="72" width="4" height="4" fill="#fdba74" />
<rect x="24" y="72" width="4" height="4" fill="#fdba74" />
<rect x="28" y="72" width="4" height="4" fill="#fdba74" />
<rect x="32" y="72" width="4" height="4" fill="#fdba74" />
<rect x="36" y="72" width="4" height="4" fill="#dc2626" />
<rect x="40" y="72" width="4" height="4" fill="#fdba74" />
<rect x="44" y="72" width="4" height="4" fill="#fdba74" />
<rect x="48" y="72" width="4" height="4" fill="#fdba74" />
<rect x="52" y="72" width="4" height="4" fill="#fdba74" />
<rect x="56" y="72" width="4" height="4" fill="#dc2626" />
<rect x="60" y="72" width="4" height="4" fill="#fdba74" />
<rect x="64" y="72" width="4" height="4" fill="#fdba74" />
<rect x="68" y="72" width="4" height="4" fill="#fdba74" />
<rect x="72" y="72" width="4" height="4" fill="#fdba74" />
<rect x="76" y="72" width="4" height="4" fill="#1a1a1a" />
<rect x="20" y="76" width="4" height="4" fill="#1a1a1a" />
<rect x="24" y="76" width="4" height="4" fill="#1a1a1a" />
<rect x="28" y="76" width="4" height="4" fill="#1a1a1a" />
<rect x="32" y="76" width="4" height="4" fill="#1a1a1a" />
<rect x="36" y="76" width="4" height="4" fill="#1a1a1a" />
<rect x="40" y="76" width="4" height="4" fill="#1a1a1a" />
<rect x="44" y="76" width="4" height="4" fill="#1a1a1a" />
<rect x="48" y="76" width="4" height="4" fill="#1a1a1a" />
<rect x="52" y="76" width="4" height="4" fill="#1a1a1a" />
<rect x="56" y="76" width="4" height="4" fill="#1a1a1a" />
<rect x="60" y="76" width="4" height="4" fill="#1a1a1a" />
<rect x="64" y="76" width="4" height="4" fill="#1a1a1a" />
<rect x="68" y="76" width="4" height="4" fill="#1a1a1a" />
<rect x="72" y="76" width="4" height="4" fill="#1a1a1a" />
</g>
  <rect x="80" y="128" width="22" height="8" fill="#ffffff" stroke="#1a1a1a" stroke-width="0.5" />
  <text x="91" y="132" fill="#1a1a1a" font-family="monospace" font-size="5" font-weight="bold" text-anchor="middle" dominant-baseline="middle">EMBER ◈</text>
  <text x="114" y="40" fill="#6b7280" font-family="monospace" font-size="7" font-weight="bold">TYPE:</text>
  <text x="144" y="40" fill="#7f001c" font-family="monospace" font-size="7" font-weight="bold">INFINITE-LOOP</text>
  <text x="114" y="53" fill="#6b7280" font-family="monospace" font-size="7" font-weight="bold">REPOS/FOLLOWER:</text>
  <text x="192" y="53" fill="#1a1a1a" font-family="monospace" font-size="7" font-weight="bold">22 / 7</text>
  <text x="114" y="66" fill="#6b7280" font-family="monospace" font-size="7" font-weight="bold">BORN IN:</text>
  <text x="158" y="66" fill="#1a1a1a" font-family="monospace" font-size="7" font-weight="bold">2022 @ GitHub</text>
  <text x="114" y="88" fill="#6b7280" font-family="monospace" font-size="6" font-weight="bold">HP</text>
<rect x="138" y="82" width="160" height="8" fill="#f3f4f6" stroke="#d1d5db" stroke-width="0.5" />
<rect x="138" y="83" width="19" height="6" fill="#1a1a1a" />
<rect x="158" y="83" width="19" height="6" fill="#1a1a1a" />
<rect x="178" y="83" width="19" height="6" fill="#1a1a1a" />
<rect x="198" y="83" width="19" height="6" fill="#1a1a1a" />
<text x="316" y="88" fill="#1a1a1a" font-family="monospace" font-size="6" font-weight="bold" text-anchor="end">51</text>
<text x="114" y="99" fill="#6b7280" font-family="monospace" font-size="6" font-weight="bold">ATK</text>
<rect x="138" y="93" width="160" height="8" fill="#f3f4f6" stroke="#d1d5db" stroke-width="0.5" />
<rect x="138" y="94" width="19" height="6" fill="#1a1a1a" />
<rect x="158" y="94" width="19" height="6" fill="#1a1a1a" />
<rect x="178" y="94" width="19" height="6" fill="#1a1a1a" />
<rect x="198" y="94" width="19" height="6" fill="#1a1a1a" />
<rect x="218" y="94" width="19" height="6" fill="#1a1a1a" />
<rect x="238" y="94" width="19" height="6" fill="#1a1a1a" />
<text x="316" y="99" fill="#1a1a1a" font-family="monospace" font-size="6" font-weight="bold" text-anchor="end">84</text>
<text x="114" y="110" fill="#6b7280" font-family="monospace" font-size="6" font-weight="bold">DEF</text>
<rect x="138" y="104" width="160" height="8" fill="#f3f4f6" stroke="#d1d5db" stroke-width="0.5" />
<rect x="138" y="105" width="19" height="6" fill="#1a1a1a" />
<rect x="158" y="105" width="19" height="6" fill="#1a1a1a" />
<rect x="178" y="105" width="19" height="6" fill="#1a1a1a" />
<rect x="198" y="105" width="19" height="6" fill="#1a1a1a" />
<text x="316" y="110" fill="#1a1a1a" font-family="monospace" font-size="6" font-weight="bold" text-anchor="end">60</text>
<text x="114" y="121" fill="#6b7280" font-family="monospace" font-size="6" font-weight="bold">SPD</text>
<rect x="138" y="115" width="160" height="8" fill="#f3f4f6" stroke="#d1d5db" stroke-width="0.5" />
<rect x="138" y="116" width="19" height="6" fill="#1a1a1a" />
<rect x="158" y="116" width="19" height="6" fill="#1a1a1a" />
<rect x="178" y="116" width="19" height="6" fill="#1a1a1a" />
<rect x="198" y="116" width="19" height="6" fill="#1a1a1a" />
<text x="316" y="121" fill="#1a1a1a" font-family="monospace" font-size="6" font-weight="bold" text-anchor="end">52</text>
<text x="114" y="132" fill="#6b7280" font-family="monospace" font-size="6" font-weight="bold">CHA</text>
<rect x="138" y="126" width="160" height="8" fill="#f3f4f6" stroke="#d1d5db" stroke-width="0.5" />
<rect x="138" y="127" width="19" height="6" fill="#7f001c" />
<rect x="158" y="127" width="19" height="6" fill="#7f001c" />
<text x="316" y="132" fill="#1a1a1a" font-family="monospace" font-size="6" font-weight="bold" text-anchor="end">30</text>

  <rect x="114" y="141" width="54" height="8" fill="#f3f4f6" stroke="#d1d5db" stroke-width="0.5" />
<text x="117" y="146" fill="#7f001c" font-family="monospace" font-size="5.5" font-weight="bold" dominant-baseline="middle">GIT COMMIT</text>
<text x="152" y="146" fill="#9ca3af" font-family="monospace" font-size="5.5" dominant-baseline="middle">P75</text>
<rect x="170" y="141" width="50" height="8" fill="#f3f4f6" stroke="#d1d5db" stroke-width="0.5" />
<text x="173" y="146" fill="#7f001c" font-family="monospace" font-size="5.5" font-weight="bold" dominant-baseline="middle">NUKE DEPS</text>
<text x="204.7" y="146" fill="#9ca3af" font-family="monospace" font-size="5.5" dominant-baseline="middle">P55</text>
<rect x="222" y="141" width="64" height="8" fill="#f3f4f6" stroke="#d1d5db" stroke-width="0.5" />
<text x="225" y="146" fill="#7f001c" font-family="monospace" font-size="5.5" font-weight="bold" dominant-baseline="middle">STACKOVERFLOW</text>
<text x="269.9" y="146" fill="#9ca3af" font-family="monospace" font-size="5.5" dominant-baseline="middle">P45</text>
<rect x="288" y="141" width="64" height="8" fill="#f3f4f6" stroke="#d1d5db" stroke-width="0.5" />
<text x="291" y="146" fill="#7f001c" font-family="monospace" font-size="5.5" font-weight="bold" dominant-baseline="middle">COFFEE REFILL</text>
<text x="335.9" y="146" fill="#9ca3af" font-family="monospace" font-size="5.5" dominant-baseline="middle">P25</text>

  <line x1="8" y1="167" x2="452" y2="167" stroke="#d1d5db" stroke-width="0.5" stroke-dasharray="3,3" />
  <text x="8" y="175" fill="#6b7280" font-family="monospace" font-size="6.5" font-style="italic">"Bio is standard default template. Crawls StackOverflow</text>
<text x="8" y="184" fill="#6b7280" font-family="monospace" font-size="6.5" font-style="italic">daily for solutions."</text>

  <line x1="4" y1="192" x2="456" y2="192" stroke="#1a1a1a" stroke-width="1" />
  <rect x="2" y="193" width="456" height="25" fill="#f5f5f5" />
  <text x="8" y="205" fill="#6b7280" font-family="monospace" font-size="7" font-weight="bold" dominant-baseline="middle">W:0 L:1</text>
  <text x="452" y="205" fill="#7f001c" font-family="monospace" font-size="7" font-weight="bold" text-anchor="end" dominant-baseline="middle">@KEVINJOBIN1</text>
</svg>